<svg xmlns="http://www.w3.org/2000/svg" width="438" height="541.91" version="1.1" viewBox="0 0 437.996 541.908" xml:space="preserve"><defs><clipPath id="a" clipPathUnits="userSpaceOnUse"><path d="m0 500h500v-500h-500v500z"/></clipPath></defs><g><g clip-path="url(#a)" transform="matrix(1.25 0 0 -1.25 -94.485 581.99)"><g><path fill="#0372b4" fill-rule="evenodd" d="m0 0v-67.597l-116.74-68.204s0.043-75.32 0.043-98.2c7.709 4.404 116.61 67.167 116.61 67.167v-67.211l-174.73-99.985-0.338 233.82 175.16 100.21" transform="translate(250.74 366.1)"/></g><g><path fill="#0372b4" fill-rule="evenodd" d="m0 0v-199.84l-57.917 33.252-0.158 65.884-58.84-32.305-58.325 33.515 175.24 99.505z" transform="translate(425.98 465.59)"/></g><g><path fill="#012b42" fill-rule="evenodd" d="m0 0v67.21l116.98-66.458v97.897l-116.89 67.8v67.595l175.24-100.35v-233.52l-175.33 99.83z" transform="translate(250.65 132.05)"/></g><g><path fill="#012b42" fill-rule="evenodd" d="m0 0-58.029 33.201v-66.939l-58.43-33.138 0.205 199.68s119.22-67.425 174.95-99.468l-58.69-33.332z" transform="translate(192.05 332.76)"/></g><g><path fill="#012b42" fill-rule="evenodd" d="m0 0 85.594-49.249-58.432-33.643-58.178 33.387-0.042 31.289 31.058 18.216z" transform="translate(165.06 248.51)"/></g><g><path fill="#0372b4" fill-rule="evenodd" d="m0 0 86.211 49.646 30.77-17.827s0.032-22.351 0-31.992c-19.376-11.066-57.719-33.2-57.719-33.2l-59.261 33.373z" transform="translate(250.65 198.88)"/></g></g></g></svg>