<svg xmlns="http://www.w3.org/2000/svg" xmlns:xlink="http://www.w3.org/1999/xlink" width="93" height="115" version="1.1" viewBox="0 0 93 115"><title>flow</title><desc>Created with Sketch.</desc><defs><linearGradient id="linearGradient-1" x1="16.107%" x2="72.709%" y1="58.056%" y2="72.523%"><stop offset="0%" stop-color="#FFD441"/><stop offset="100%" stop-color="#FFB047"/></linearGradient><linearGradient id="linearGradient-2" x1="70.213%" x2="100%" y1="65.544%" y2=".8%"><stop offset="0%" stop-color="#FFD754"/><stop offset="100%" stop-color="#FFB532"/></linearGradient><linearGradient id="linearGradient-3" x1="22.178%" x2="22.178%" y1="65.88%" y2="9.967%"><stop offset="0%" stop-color="#FFD642"/><stop offset="0%" stop-color="#FFD441"/><stop offset="100%" stop-color="#FFB532"/></linearGradient><linearGradient id="linearGradient-4" x1="77.083%" x2="23.982%" y1="24.298%" y2="6.966%"><stop offset="0%" stop-color="#FFD441"/><stop offset="100%" stop-color="#FFA829"/></linearGradient></defs><g id="Page-1" fill="none" fill-rule="evenodd" stroke="none" stroke-width="1"><g id="Logos" fill-rule="nonzero" transform="translate(-30.000000, -1943.000000)"><g id="flow" transform="translate(30.000000, 1943.000000)"><polyline id="Shape" fill="#FFDF51" fill-opacity=".7" points="76 113 76 83 47 83 76 113"/><polyline id="Shape" fill="#FF8900" fill-opacity=".7" points="80 95 80 63 48 63 80 95"/><polyline id="Shape" fill="url(#linearGradient-1)" fill-opacity=".7" points="61 83 61 115 93 115 61 83"/><polyline id="Shape" fill="#FFDF4F" fill-opacity=".7" points="73 65 73 40 48 40 73 65"/><polyline id="Shape" fill="url(#linearGradient-2)" fill-opacity=".8" points="86 59 86 27 54 27 86 59"/><polyline id="Shape" fill="url(#linearGradient-3)" fill-opacity=".8" points="31 0 31 32 63 32 31 0"/><polyline id="Shape" fill="url(#linearGradient-4)" fill-opacity=".88" points="39 49.993 39 18 0 18 32.112 50 39 49.993"/><polyline id="Shape" fill="#FFB700" fill-opacity=".7" points="39 115 39 76 0 76 39 115"/><polyline id="Shape" fill="#FFB700" fill-opacity=".5" points="39 82 39 50 7 50 39 82"/><polyline id="Shape" fill="#FFCD25" fill-opacity=".7" points="48 40 48 72 80 72 48 40"/><polyline id="Shape" fill="#FF8900" fill-opacity=".7" points="39 44 39 12 7 12 39 44"/><polyline id="Shape" fill="#FF8900" fill-opacity=".7" points="47 83 47 115 79 115 47 83"/></g></g></g></svg>