<svg xmlns="http://www.w3.org/2000/svg" xmlns:osb="http://www.openswatchbook.org/uri/2009/osb" xmlns:xlink="http://www.w3.org/1999/xlink" width="423.48" height="201.12" enable-background="new" version="1.1" viewBox="0 0 423.484 201.121"><defs><linearGradient id="b" x1="0" x2="423.48" y1="100.56" y2="100.56" gradientUnits="userSpaceOnUse"><stop offset="0" stop-color="#fff"/></linearGradient><linearGradient id="a" x1="207.24" x2="207.24" y1="-.195" y2="198.49" gradientUnits="userSpaceOnUse"><stop offset="0" stop-color="#2b5187"/><stop offset=".528" stop-color="#254878"/><stop offset="1" stop-color="#172e4e"/></linearGradient><filter id="c" style="color-interpolation-filters:sRGB"><feFlood flood-color="#000" flood-opacity=".529" result="flood"/><feComposite in="flood" in2="SourceGraphic" operator="in" result="composite1"/><feGaussianBlur in="composite1" result="blur" stdDeviation="1.6"/><feOffset dx="2.1" dy="2.2" result="offset"/><feComposite in="SourceGraphic" in2="offset" operator="over" result="composite2"/></filter><filter style="color-interpolation-filters:sRGB"><feFlood flood-color="#000" flood-opacity=".361" result="flood"/><feComposite in="flood" in2="SourceGraphic" operator="in" result="composite1"/><feGaussianBlur in="composite1" result="blur" stdDeviation="1.5"/><feOffset dx="2.1" dy="1.6" result="offset"/><feComposite in="SourceGraphic" in2="offset" operator="over" result="composite2"/></filter></defs><g fill-rule="evenodd" stroke="#241f1c"><rect width="372.63" height="197.47" x="25.121" y="1.902" fill="url(#a)" stroke-linejoin="round" stroke-opacity=".043" stroke-width="2" opacity=".99" rx="45.675" ry="31.634"/><rect width="291.07" height="3.548" x="80.173" y="-8.053" fill="#fff" stroke-width=".715" opacity=".177" transform="scale(1,-1)"/></g><g><path fill="url(#b)" fill-rule="evenodd" d="m93.239 0.50001c-49.632 0-67.277-0.047-73.18 25.376-1.9849 8.548-0.5746 19.51-1.2934 34.787-0.2038 4.3321 0.975 11.478-0.4866 16.273-4.84 15.876-12.872 13.992-17.664 14.553-0.2017 6.1902-0.1379 7.7623 0.1895 19.867 10.472-0.11562 17.025 6.33 17.57 13.912l0.4817 46.222c0.1269 12.172 8.7142 21.94 18.32 26.155 8.4607 3.7124 17.45 2.5427 25.799 2.9522l0.3289-19.175c-11.506 0.92078-18.848-2.8788-21.053-12.5l-0.7942-45.066c-0.1527-8.6694-4.3005-16.042-13.583-22.657 7.3646-4.3055 12.012-11.335 12.733-18.132l1.3157-50.987c2.1538-10.705 12.575-12.081 25.987-10.855l0.6579 115.13c2.3569 26.451 20.689 26.767 36.786 28.618l3.2661-20.298c-2.8734-1.2373-8.0344-1.108-11.723-4.6849-1.6963-1.6452-3.9981-3.1574-3.987-7.5825zm64.871 51.523c-26.383-0.0984-47.213 19.863-49.078 54.662-0.061 36.816 17.12 56.689 53.033 58.15 20.212-0.21928 29.198-3.2456 37.215-6.5137l-3.73-19.07c-33.594 9.6342-57.658 5.9232-60.941-22.795h71.176c-0.4338-31.62-4.5478-64.271-47.684-64.432zm2.0781 20.465c10.361 0.19318 20.269 8.0781 21.414 25.824h-46.287c0.8075-16.382 13.131-26.043 24.873-25.824zm120.04 4.1915 3.7216-20.004c-14.344-4.6641-28.87-6.9367-43.031-4.1868-19.162 3.7211-26.174 14.567-28.377 26.284-1.4115 15.206 3.9073 27.018 17.212 32.564 22.127 9.2232 36.537 14.735 34.658 23.958-3.4851 17.105-33.843 9.0294-49.544 2.7912l-4.652 20.934c13.275 5.7968 29.747 8.8767 55.359 4.1868 12.164-3.9549 23.166-9.5599 23.725-30.006 0.8489-20.862-16.127-29.169-30.006-33.262-26.929-7.9411-26.676-19.792-15.156-26.897 10.936-3.9306 25.021 0.74337 36.09 3.6365zm80.969 0.15059 3.7216-20.004c-14.344-4.6641-28.87-6.9367-43.031-4.1868-19.163 3.7211-26.174 14.567-28.377 26.284-1.4115 15.206 3.9073 27.018 17.212 32.564 22.127 9.2232 36.537 14.735 34.658 23.958-3.4852 17.105-33.843 9.0294-49.544 2.7912l-4.652 20.934c13.275 5.7968 29.747 8.8767 55.359 4.1868 12.164-3.9549 23.166-9.5599 23.725-30.006 0.8489-20.862-16.127-29.169-30.006-33.262-26.929-7.9411-26.676-19.792-15.156-26.897 10.936-3.9306 25.02 0.74337 36.09 3.6365zm-1.1772-76.224c28.413-0.10632 37.966 7.2188 43.413 24.88 2.5861 8.3857 0.5746 19.51 1.2934 34.787 0.2039 4.3321-1.1868 11.548 0.4866 16.273 4.6263 15.94 12.872 13.992 17.664 14.553 0.2018 6.1902 0.1379 7.7623-0.1895 19.867-10.472-0.11562-17.025 6.33-17.57 13.912l-0.4817 46.222c-0.1269 12.172-8.7142 21.94-18.32 26.155-8.4606 3.7124-17.45 2.5427-25.799 2.9522l-0.329-19.175c11.506 0.92078 18.848-2.8788 21.053-12.5l0.7942-45.066c0.1528-8.6694 4.3005-16.042 13.583-22.657-7.3647-4.3055-12.012-11.335-12.733-18.132l-1.3158-50.987c-0.1963-7.606-10.309-12.238-21.382-11.513z" filter="url(#c)"/></g></svg>