<svg xmlns="http://www.w3.org/2000/svg" xmlns:xlink="http://www.w3.org/1999/xlink" x="0" y="0" enable-background="new 0 0 114 56.7" version="1.1" viewBox="0 0 114 56.7" xml:space="preserve"><defs><ellipse id="g" cx="538.6" cy="28.3" enable-background="new" rx="0" ry="28.2"/><ellipse id="f" cx="-374.1" cy="28.3" enable-background="new" rx="0" ry="28.2"/><path id="d" d="m-374.1 0.1h912.6v28.2 28.2h-912.6v-28.2-28.2z" enable-background="new"/><path id="c" d="m-374.1 56.4v-28.2-28.2h912.6v28.2 28.2h-912.6z" enable-background="new"/><ellipse id="a" cx="538.6" cy="28.2" enable-background="new" rx="0" ry="28.2"/><ellipse id="l" cx="-374.1" cy="28.2" enable-background="new" rx="0" ry="28.2"/><path id="j" d="m-374.1 0h912.6v28.2s0 28.2 0 28.2h-912.6v-28.2s0-28.2 0-28.2z" enable-background="new"/><path id="i" d="m-374.1 56.3v-28.2s0-28.2 0-28.2h912.6v28.2s0 28.2 0 28.2h-912.6z" enable-background="new"/></defs><g><g><clipPath><use overflow="visible" xlink:href="#g"/></clipPath></g><g><clipPath id="e"><use overflow="visible" xlink:href="#f"/></clipPath><g clip-path="url(#e)"><g fill="none"><polyline points="-374.1 -41.8 -374.1 -19.4 -374.1 3 -374.1 -19.4 -374.1 -41.8"/><polyline points="-374.1 5.9 -374.1 28.3 -374.1 50.7 -374.1 28.3 -374.1 5.9"/><polyline points="-374.1 53.5 -374.1 75.9 -374.1 98.3 -374.1 75.9 -374.1 53.5"/></g></g></g><g><clipPath><use overflow="visible" xlink:href="#d"/></clipPath></g><g><clipPath id="b"><use overflow="visible" xlink:href="#c"/></clipPath><g clip-path="url(#b)"><path fill="#EB7077" d="m95 30.3h16.3c-5.7 1.9-7.5 5.7-8.5 16.5-0.7 7.7-4.2 9.7-4.2 9.7-2.6 0-5.2-11.1-7.5-22.9 0.9-2 2.1-3 3.9-3.3z"/><path fill="#EB7077" d="m98.5 56.4h-16.3c2.9 0 4.9-5.5 6.1-12.5 0.8-4.7 1.6-8.1 2.7-10.4 2.3 11.8 4.9 22.9 7.5 22.9z"/><path fill="#F6A2AD" d="m91 33.5c-1.2 2.2-2 5.7-2.7 10.4-1.2 7-3.2 12.5-6.1 12.5-3.1-0.7-5.6-12.5-8.9-30.5-0.1-0.6-0.2-1.1-0.3-1.7 2.5-13 5.1-24.2 7.7-24.2h0.9c3.1 0.7 5.6 12.5 8.9 30.5 0.2 1.1 0.3 2 0.5 3z"/><g fill="#EB7077"><path d="m65.3 0.1h15.4c-2.6 0-5.3 11.2-7.7 24.2-2.3-12.2-5-24.2-7.7-24.2z"/><path d="m73 24.3c-0.2 1.3-0.5 2.6-0.7 4-3.7 20.2-5.9 27.6-8.5 28.2-2.9 0-5.7-13.1-8-25.9 0-0.2-0.1-0.4-0.1-0.6 0.1-0.6 0.2-1.1 0.3-1.7 3.7-20.3 5.9-27.6 8.4-28.2h0.9c2.7 0 5.4 12 7.7 24.2z"/><path d="m63.8 56.4h-16.3c2.8 0 5.6-12.5 8.1-26.5 0 0.2 0.1 0.4 0.1 0.6 2.4 12.9 5.3 25.9 8.1 25.9z"/></g><path fill="#F6A2AD" d="m55.7 30c-2.6 14-5.4 26.5-8.1 26.5-3.2-0.8-5.6-12.6-9-30.5-0.1-0.6-0.2-1.1-0.3-1.7 2.5-13 5.1-24.2 7.7-24.2h0.9c3.1 0.7 5.5 12.3 8.8 29.9z"/><g fill="#EB7077"><path d="m30.6 0.1h15.4c-2.6 0-5.2 11.2-7.7 24.2-2.3-12.2-5-24.2-7.7-24.2z"/><path d="m38.3 24.3c-0.2 1.3-0.5 2.6-0.7 4-3.7 20.2-5.9 27.6-8.5 28.2-2.9 0-1.8-0.5-3.6-8.6s-3.2-12.9-5.1-15.4c0.3-1.4 0.5-2.8 0.8-4.2 3.8-20.3 6-27.6 8.5-28.2h0.9c2.7 0 5.4 12 7.7 24.2z"/><path d="m29.1 56.4h-16.3c2.6 0 5.2-11.1 7.7-24 1.8 2.5 3.2 7.3 5.1 15.4 1.8 8.1 0.6 8.6 3.5 8.6z"/></g><path fill="#F6A2AD" d="m20.5 32.4c-2.5 12.9-5.1 24-7.7 24-0.3-0.4-2.1 0-3.8-10-1.5-9.2-4.2-15-8.6-16.1h16.3c1.6 0.1 2.7 0.7 3.8 2.1z"/></g></g></g><path fill="none" d="m194.8 54.9"/><g><g><clipPath><use overflow="visible" xlink:href="#a"/></clipPath></g><g><clipPath id="k"><use overflow="visible" xlink:href="#l"/></clipPath><g clip-path="url(#k)"><g fill="none"><polyline points="-374.1 -41.9 -374.1 -19.5 -374.1 2.9 -374.1 -19.5 -374.1 -41.9"/><polyline points="-374.1 5.8 -374.1 28.2 -374.1 50.6 -374.1 28.2 -374.1 5.8"/><polyline points="-374.1 53.4 -374.1 75.8 -374.1 98.2 -374.1 75.8 -374.1 53.4"/></g></g></g><g><clipPath><use overflow="visible" xlink:href="#j"/></clipPath></g><g><clipPath id="h"><use overflow="visible" xlink:href="#i"/></clipPath><g clip-path="url(#h)"><path fill="#EB7077" d="m95 30.2h16.3c-5.7 1.9-7.5 5.7-8.5 16.5-0.7 7.7-4.2 9.7-4.2 9.7-2.6 0-5.2-11.1-7.5-22.9 0.9-2 2.1-3 3.9-3.3z"/><path fill="#EB7077" d="m98.5 56.3h-16.3c2.9 0 4.9-5.5 6.1-12.5 0.8-4.7 1.6-8.1 2.7-10.4 2.3 11.8 4.9 22.9 7.5 22.9z"/><path fill="#F6A2AD" d="m91 33.4c-1.2 2.2-2 5.7-2.7 10.4-1.2 7-3.2 12.5-6.1 12.5-3.1-0.7-5.6-12.5-8.9-30.5-0.1-0.6-0.2-1.1-0.3-1.7 2.5-12.9 5.1-24.1 7.7-24.1h0.9c3.1 0.7 5.6 12.5 8.9 30.5 0.2 0.9 0.3 1.9 0.5 2.9z"/><g fill="#EB7077"><path d="m65.3 0h15.4c-2.6 0-5.3 11.2-7.7 24.2-2.3-12.2-5-24.2-7.7-24.2z"/><path d="m73 24.2c-0.2 1.3-0.5 2.6-0.7 4-3.7 20.2-5.9 27.6-8.5 28.2-2.9 0-5.7-13.1-8-25.9 0-0.2-0.1-0.4-0.1-0.6 0.1-0.6 0.2-1.1 0.3-1.7 3.7-20.3 5.9-27.6 8.4-28.2h0.9c2.7 0 5.4 12 7.7 24.2z"/><path d="m63.8 56.3h-16.3c2.8 0 5.6-12.5 8.1-26.5 0 0.2 0.1 0.4 0.1 0.6 2.4 12.9 5.3 25.9 8.1 25.9z"/></g><path fill="#F6A2AD" d="m55.7 29.9c-2.6 14-5.4 26.5-8.1 26.5-3.1-0.7-5.6-12.5-8.9-30.5-0.1-0.6-0.2-1.1-0.3-1.7 2.4-13 5-24.2 7.6-24.2h0.9c3.1 0.7 5.5 12.2 8.8 29.9z"/><g fill="#EB7077"><path d="m30.6 0h15.4c-2.6 0-5.2 11.2-7.7 24.2-2.3-12.2-5-24.2-7.7-24.2z"/><path d="m38.3 24.2c-0.2 1.3-0.5 2.6-0.7 4-3.7 20.2-5.9 27.6-8.5 28.2-2.9 0-1.8-0.5-3.6-8.6s-3.2-12.9-5.1-15.4c0.3-1.4 0.5-2.8 0.8-4.2 3.8-20.3 6-27.6 8.5-28.2h0.9c2.7 0 5.4 12 7.7 24.2z"/><path d="m29.1 56.3h-16.3c2.6 0 5.2-11.1 7.7-24 1.8 2.5 3.2 7.3 5.1 15.4 1.8 8.1 0.6 8.6 3.5 8.6z"/></g><path fill="#F6A2AD" d="m20.5 32.3c-2.5 12.9-5.1 24-7.7 24-0.3-0.4-2.1 0-3.8-10-1.5-9.2-4.2-15-8.6-16.1h16.3c1.6 0 2.7 0.7 3.8 2.1z"/></g></g></g></svg>