<svg xmlns="http://www.w3.org/2000/svg" x="0" y="0" enable-background="new 0 0 416 286" version="1.1" viewBox="0 0 416 286" xml:space="preserve"><polygon fill="#303F9F" points="84.157 143 42.878 214.5 84.157 286 125.44 214.5"/><polygon fill="#3F51B5" points="331.84 0 290.56 71.5 331.84 143 373.12 71.5"/><polygon fill="#7986CB" points="373.12 71.5 249.28 286 331.84 286 414.4 143"/><polygon fill="#FF4081" points="249.28 0 84.157 286 166.72 286 331.84 0"/><polygon fill="#536DFE" points="84.157 0 1.596 143 42.878 214.5 166.72 0"/><g fill="#fff"><polygon fill-opacity=".2" points="249.28 0 290.56 71.5 331.84 0"/><polygon fill-opacity=".1" points="208 71.5 249.28 0 290.56 71.5"/><polygon fill-opacity="0" points="208 71.5 249.28 143 290.56 71.5"/></g><polygon fill-opacity=".1" points="166.72 143 208 71.5 249.28 143"/><polygon fill-opacity=".2" points="166.72 143 208 214.5 249.28 143"/><polygon fill-opacity=".3" points="125.44 214.5 166.72 143 208 214.5"/><polygon fill-opacity=".4" points="125.44 214.5 166.72 286 208 214.5"/><polygon fill-opacity=".5" points="84.157 286 125.44 214.5 166.72 286"/><g fill="#fff"><polygon fill-opacity=".2" points="84.157 0 125.44 71.5 166.72 0"/><polygon fill-opacity=".1" points="42.878 71.5 84.157 0 125.44 71.5"/><polygon fill-opacity="0" points="42.878 71.5 84.157 143 125.44 71.5"/></g><polygon fill-opacity=".1" points="1.598 143 42.878 71.5 84.157 143"/><polygon fill-opacity=".2" points="1.598 143 42.878 214.5 84.157 143"/><polygon fill="#fff" fill-opacity="0" points="125.44 214.5 84.157 143 42.878 214.5"/><polygon fill-opacity=".2" points="125.44 214.5 84.157 286 42.878 214.5"/><polygon fill-opacity=".2" points="373.12 71.5 331.84 0 290.56 71.5"/><polygon fill="#fff" fill-opacity="0" points="373.12 71.5 331.84 143 290.56 71.5"/><g fill="#fff"><polygon fill-opacity=".2" points="331.84 143 373.12 71.5 414.4 143"/><polygon fill-opacity=".1" points="331.84 143 373.12 214.5 414.4 143"/><polygon fill-opacity="0" points="290.56 214.5 331.84 143 373.12 214.5"/></g><polygon fill-opacity=".1" points="290.56 214.5 331.84 286 373.12 214.5"/><polygon fill-opacity=".2" points="249.28 286 290.56 214.5 331.84 286"/><rect width="416" height="416" y="-65" fill="none"/><g display="none"><g display="inline"><polygon fill="#303F9F" points="84.157 143 42.878 214.5 84.157 286 166.72 286"/><polygon fill="#3F51B5" points="331.84 0 249.28 0 331.84 143 373.12 71.5"/><polygon fill="#7986CB" points="373.12 71.5 249.28 286 331.84 286 414.4 143"/><polygon fill="#536DFE" points="84.157 0 1.596 143 42.878 214.5 166.72 0"/><polygon fill-opacity=".5" points="249.28 0 290.56 71.5 331.84 0"/><polygon fill-opacity=".5" points="84.157 286 125.44 214.5 166.72 286"/><g fill="#fff"><polygon fill-opacity=".2" points="84.157 0 125.44 71.5 166.72 0"/><polygon fill-opacity=".1" points="42.878 71.5 84.157 0 125.44 71.5"/><polygon fill-opacity="0" points="42.878 71.5 84.157 143 125.44 71.5"/></g><polygon fill-opacity=".1" points="1.598 143 42.878 71.5 84.157 143"/><polygon fill-opacity=".2" points="1.598 143 42.878 214.5 84.157 143"/><polygon fill="#fff" fill-opacity="0" points="125.44 214.5 84.157 143 42.878 214.5"/><polygon fill="#fff" fill-opacity="0" points="373.12 71.5 331.84 143 290.56 71.5"/><g fill="#fff"><polygon fill-opacity=".2" points="331.84 143 373.12 71.5 414.4 143"/><polygon fill-opacity=".1" points="331.84 143 373.12 214.5 414.4 143"/><polygon fill-opacity="0" points="290.56 214.5 331.84 143 373.12 214.5"/></g><polygon fill-opacity=".1" points="290.56 214.5 331.84 286 373.12 214.5"/><polygon fill-opacity=".2" points="249.28 286 290.56 214.5 331.84 286"/><polygon fill-opacity=".2" points="125.44 214.5 84.157 286 42.878 214.5"/><polygon fill-opacity=".2" points="373.12 71.5 331.84 0 290.56 71.5"/></g><rect width="416" height="416" y="-65" fill="none" display="inline"/></g><g display="none"><g display="inline"><polygon fill="#FF4081" points="249.28 0 84.157 286 166.72 286 331.84 0"/><g fill="#fff"><polygon fill-opacity=".2" points="249.28 0 290.56 71.5 331.84 0"/><polygon fill-opacity=".1" points="208 71.5 249.28 0 290.56 71.5"/><polygon fill-opacity="0" points="208 71.5 249.28 143 290.56 71.5"/></g><polygon fill-opacity=".2" points="166.72 143 208 214.5 249.28 143"/><polygon fill-opacity=".3" points="125.44 214.5 166.72 143 208 214.5"/><polygon fill-opacity=".4" points="125.44 214.5 166.72 286 208 214.5"/><polygon fill-opacity=".5" points="84.157 286 125.44 214.5 166.72 286"/><polygon fill-opacity=".1" points="166.72 143 208 71.5 249.28 143"/></g><g display="inline"><polygon fill="#FF4081" points="331.84 0 166.72 286 249.28 286 373.12 71.5"/><polygon fill="#fff" fill-opacity=".1" points="290.56 71.5 331.84 0 373.12 71.5"/><polygon fill="#fff" fill-opacity="0" points="290.56 71.5 331.84 143 373.12 71.5"/><polygon fill-opacity=".2" points="249.28 143 290.56 214.5 331.84 143"/><polygon fill-opacity=".3" points="208 214.5 249.28 143 290.56 214.5"/><polygon fill-opacity=".4" points="208 214.5 249.28 286 290.56 214.5"/><polygon fill-opacity=".5" points="166.72 286 208 214.5 249.28 286"/><polygon fill-opacity=".1" points="249.28 143 290.56 71.5 331.84 143"/></g><g display="inline"><polygon fill="#FF4081" points="166.72 0 42.878 214.5 84.16 286 249.28 0"/><g fill="#fff"><polygon fill-opacity=".2" points="166.72 0 208 71.5 249.28 0"/><polygon fill-opacity=".1" points="125.44 71.5 166.72 0 208 71.5"/><polygon fill-opacity="0" points="125.44 71.5 166.72 143 208 71.5"/></g><polygon fill-opacity=".2" points="84.16 143 125.44 214.5 166.72 143"/><polygon fill-opacity=".3" points="42.878 214.5 84.16 143 125.44 214.5"/><polygon fill-opacity=".4" points="42.878 214.5 84.16 286 125.44 214.5"/><polygon fill-opacity=".1" points="84.16 143 125.44 71.5 166.72 143"/></g><rect width="416" height="416" y="-65" fill="none" display="inline"/><g display="inline"><polygon fill="#303F9F" points="84.157 143 42.878 214.5 84.157 286 166.72 286"/><polygon fill="#3F51B5" points="331.84 0 249.28 0 331.84 143 373.12 71.5"/><polygon fill="#7986CB" points="373.12 71.5 249.28 286 331.84 286 414.4 143"/><polygon fill="#536DFE" points="84.157 0 1.597 143 42.878 214.5 166.72 0"/><polygon fill-opacity=".5" points="249.28 0 290.56 71.5 331.84 0"/><polygon fill-opacity=".5" points="84.157 286 125.44 214.5 166.72 286"/><g fill="#fff"><polygon fill-opacity=".2" points="84.157 0 125.44 71.5 166.72 0"/><polygon fill-opacity=".1" points="42.878 71.5 84.157 0 125.44 71.5"/><polygon fill-opacity="0" points="42.878 71.5 84.157 143 125.44 71.5"/></g><polygon fill-opacity=".1" points="1.6 143 42.878 71.5 84.157 143"/><polygon fill-opacity=".2" points="1.6 143 42.878 214.5 84.157 143"/><polygon fill="#fff" fill-opacity="0" points="125.44 214.5 84.157 143 42.878 214.5"/><polygon fill="#fff" fill-opacity="0" points="373.12 71.5 331.84 143 290.56 71.5"/><g fill="#fff"><polygon fill-opacity=".2" points="331.84 143 373.12 71.5 414.4 143"/><polygon fill-opacity=".1" points="331.84 143 373.12 214.5 414.4 143"/><polygon fill-opacity="0" points="290.56 214.5 331.84 143 373.12 214.5"/></g><polygon fill-opacity=".1" points="290.56 214.5 331.84 286 373.12 214.5"/><polygon fill-opacity=".2" points="249.28 286 290.56 214.5 331.84 286"/><polygon fill-opacity=".2" points="125.44 214.5 84.157 286 42.878 214.5"/><polygon fill-opacity=".2" points="373.12 71.5 331.84 0 290.56 71.5"/></g></g><g display="none"><g display="inline"><polygon fill="#9F499B" points="249.28 0 84.157 286 166.72 286 331.84 0"/><g fill="#fff"><polygon fill-opacity=".2" points="249.28 0 290.56 71.5 331.84 0"/><polygon fill-opacity=".1" points="208 71.5 249.28 0 290.56 71.5"/><polygon fill-opacity="0" points="208 71.5 249.28 143 290.56 71.5"/></g><polygon fill-opacity=".2" points="166.72 143 208 214.5 249.28 143"/><polygon fill-opacity=".3" points="125.44 214.5 166.72 143 208 214.5"/><polygon fill-opacity=".4" points="125.44 214.5 166.72 286 208 214.5"/><polygon fill-opacity=".5" points="84.157 286 125.44 214.5 166.72 286"/><polygon fill-opacity=".1" points="166.72 143 208 71.5 249.28 143"/></g><g display="inline"><polygon fill="#9F499B" points="331.84 0 166.72 286 249.28 286 373.12 71.5"/><polygon fill="#fff" fill-opacity=".1" points="290.56 71.5 331.84 0 373.12 71.5"/><polygon fill="#fff" fill-opacity="0" points="290.56 71.5 331.84 143 373.12 71.5"/><polygon fill-opacity=".2" points="249.28 143 290.56 214.5 331.84 143"/><polygon fill-opacity=".3" points="208 214.5 249.28 143 290.56 214.5"/><polygon fill-opacity=".4" points="208 214.5 249.28 286 290.56 214.5"/><polygon fill-opacity=".5" points="166.72 286 208 214.5 249.28 286"/><polygon fill-opacity=".1" points="249.28 143 290.56 71.5 331.84 143"/></g><g display="inline"><polygon fill="#9F499B" points="373.12 71.5 249.28 286 331.84 286 414.4 143"/><polygon fill-opacity=".2" points="331.84 143 373.12 214.5 414.4 143"/><polygon fill-opacity=".3" points="290.56 214.5 331.84 143 373.12 214.5"/><polygon fill-opacity=".4" points="290.56 214.5 331.84 286 373.12 214.5"/><polygon fill-opacity=".5" points="249.28 286 290.56 214.5 331.84 286"/><polygon fill-opacity=".1" points="331.84 143 373.12 71.5 414.4 143"/></g><g display="inline"><polygon fill="#9F499B" points="166.72 0 42.878 214.5 84.16 286 249.28 0"/><g fill="#fff"><polygon fill-opacity=".2" points="166.72 0 208 71.5 249.28 0"/><polygon fill-opacity=".1" points="125.44 71.5 166.72 0 208 71.5"/><polygon fill-opacity="0" points="125.44 71.5 166.72 143 208 71.5"/></g><polygon fill-opacity=".2" points="84.16 143 125.44 214.5 166.72 143"/><polygon fill-opacity=".3" points="42.878 214.5 84.16 143 125.44 214.5"/><polygon fill-opacity=".4" points="42.878 214.5 84.16 286 125.44 214.5"/><polygon fill-opacity=".1" points="84.16 143 125.44 71.5 166.72 143"/></g><g display="inline"><polygon fill="#9F499B" points="84.157 0 1.6 143 42.878 214.5 166.72 0"/><g fill="#fff"><polygon fill-opacity=".2" points="84.157 0 125.44 71.5 166.72 0"/><polygon fill-opacity=".1" points="42.878 71.5 84.157 0 125.44 71.5"/><polygon fill-opacity="0" points="42.878 71.5 84.157 143 125.44 71.5"/></g><polygon fill-opacity=".2" points="1.6 143 42.878 214.5 84.157 143"/><polygon fill-opacity=".1" points="1.6 143 42.878 71.5 84.157 143"/></g><rect width="416" height="416" y="-65" fill="none" display="inline"/></g></svg>